<svg xmlns="http://www.w3.org/2000/svg" xmlns:svg="http://www.w3.org/2000/svg" id="svg2989" width="64" height="64" version="1.1"><defs id="defs2991"><filter id="filter3016" width="1" height="1" x="0" y="0" color-interpolation-filters="sRGB"><feColorMatrix id="feColorMatrix3018" in="SourceGraphic" result="result14" type="luminanceToAlpha"/><feComposite id="feComposite3020" in="SourceGraphic" in2="result14" operator="out" result="fbSourceGraphic"/><feBlend id="feBlend3022" in2="fbSourceGraphic" mode="normal" result="result15"/></filter></defs><metadata id="metadata2994"/><g id="layer1" style="display:inline"><path style="fill:#f60;filter:url(#filter3016)" id="path3003" d="m 62.363634,38.909092 a 29.636362,38.909092 0 1 1 -59.272724,0 29.636362,38.909092 0 1 1 59.272724,0 z" transform="matrix(1.0797546,0,0,0.82242991,-3.3374234,0)"/></g><g id="layer4" style="display:inline"><path style="fill:#fff" id="path3363" d="m 52.181818,45.454544 a 5.818182,6 0 1 1 -11.636364,0 5.818182,6 0 1 1 11.636364,0 z" transform="matrix(1.203125,0,0,1.1666667,-12.781247,-10.030301)"/><path style="fill:#fff;display:inline" id="path3363-1" d="m 52.181818,45.454544 a 5.818182,6 0 1 1 -11.636364,0 5.818182,6 0 1 1 11.636364,0 z" transform="matrix(1.203125,0,0,1.1666667,-12.781249,-34.030303)"/><path style="fill:#fff;display:inline" id="path3363-7" d="m 52.181818,45.454544 a 5.818182,6 0 1 1 -11.636364,0 5.818182,6 0 1 1 11.636364,0 z" transform="matrix(1.203125,0,0,1.1666667,-39.599431,-22.030303)"/><rect style="fill:#fff" id="rect3417" width="5.128" height="25.218" x="31.888" y="-26.716" rx="0" ry="2" transform="matrix(0.40362239,0.91492566,-0.91492566,0.40362239,0,0)"/><rect style="fill:#fff;display:inline" id="rect3417-0" width="5.122" height="25.054" x="20.114" y="-55.236" rx="0" ry="1.987" transform="matrix(-0.38739547,0.92191364,-0.91972028,-0.39257432,0,0)"/></g></svg>